<?xml version="1.0" encoding="utf-8" ?>
<svg baseProfile="tiny" height="512px" version="1.2" width="512px" xmlns="http://www.w3.org/2000/svg" xmlns:ev="http://www.w3.org/2001/xml-events" xmlns:xlink="http://www.w3.org/1999/xlink"><defs /><path d="M 257,175 L 256,176 L 252,176 L 251,177 L 248,177 L 247,178 L 245,178 L 244,179 L 242,179 L 241,180 L 240,180 L 239,181 L 238,181 L 237,182 L 236,182 L 235,183 L 234,183 L 233,184 L 232,184 L 231,185 L 230,185 L 228,187 L 227,187 L 224,190 L 223,190 L 213,200 L 213,201 L 210,204 L 210,205 L 207,208 L 207,209 L 206,210 L 206,211 L 204,213 L 204,214 L 203,215 L 203,216 L 202,217 L 202,218 L 201,219 L 201,221 L 200,222 L 200,223 L 199,224 L 199,226 L 198,227 L 198,230 L 197,231 L 197,234 L 196,235 L 196,239 L 195,240 L 195,247 L 194,248 L 194,260 L 195,261 L 195,268 L 196,269 L 196,273 L 197,274 L 197,278 L 198,279 L 198,281 L 199,282 L 199,284 L 200,285 L 200,286 L 201,287 L 201,288 L 202,289 L 202,291 L 203,292 L 203,293 L 204,294 L 204,295 L 206,297 L 206,298 L 207,299 L 207,300 L 209,302 L 209,303 L 212,306 L 212,307 L 221,316 L 222,316 L 226,320 L 227,320 L 229,322 L 230,322 L 231,323 L 232,323 L 234,325 L 236,325 L 237,326 L 238,326 L 239,327 L 240,327 L 241,328 L 242,328 L 243,329 L 245,329 L 246,330 L 249,330 L 250,331 L 253,331 L 254,332 L 258,332 L 259,333 L 277,333 L 278,332 L 282,332 L 283,331 L 286,331 L 287,330 L 289,330 L 290,329 L 291,329 L 292,328 L 294,328 L 295,327 L 296,327 L 297,326 L 298,326 L 300,324 L 301,324 L 303,322 L 304,322 L 309,317 L 310,317 L 311,316 L 311,315 L 315,311 L 315,310 L 317,308 L 317,307 L 319,305 L 319,304 L 320,303 L 320,302 L 321,301 L 321,300 L 322,299 L 322,297 L 323,296 L 323,294 L 324,293 L 324,290 L 325,289 L 325,287 L 324,286 L 324,285 L 322,283 L 319,283 L 316,286 L 316,287 L 315,288 L 315,289 L 314,290 L 314,291 L 313,292 L 313,293 L 312,294 L 312,295 L 310,297 L 310,298 L 309,299 L 309,300 L 306,303 L 306,304 L 299,311 L 298,311 L 295,314 L 294,314 L 293,315 L 292,315 L 291,316 L 290,316 L 289,317 L 288,317 L 287,318 L 285,318 L 284,319 L 281,319 L 280,320 L 264,320 L 263,319 L 261,319 L 260,318 L 258,318 L 257,317 L 255,317 L 254,316 L 253,316 L 251,314 L 250,314 L 247,311 L 246,311 L 241,306 L 241,305 L 238,302 L 238,301 L 237,300 L 237,299 L 235,297 L 235,296 L 234,295 L 234,294 L 233,293 L 233,291 L 232,290 L 232,289 L 231,288 L 231,286 L 230,285 L 230,283 L 229,282 L 229,279 L 228,278 L 228,275 L 227,274 L 227,269 L 226,268 L 226,257 L 225,256 L 225,248 L 226,247 L 226,238 L 227,237 L 227,232 L 228,231 L 228,228 L 229,227 L 229,224 L 230,223 L 230,221 L 231,220 L 231,218 L 232,217 L 232,216 L 233,215 L 233,213 L 234,212 L 234,211 L 236,209 L 236,208 L 237,207 L 237,206 L 240,203 L 240,202 L 247,195 L 248,195 L 250,193 L 251,193 L 252,192 L 253,192 L 254,191 L 255,191 L 256,190 L 257,190 L 258,189 L 261,189 L 262,188 L 277,188 L 278,189 L 280,189 L 281,190 L 283,190 L 284,191 L 286,191 L 288,193 L 289,193 L 290,194 L 291,194 L 293,196 L 294,196 L 302,204 L 302,205 L 304,207 L 304,208 L 305,209 L 305,210 L 306,211 L 306,212 L 307,213 L 307,214 L 308,215 L 308,217 L 309,218 L 309,219 L 310,220 L 310,222 L 311,223 L 311,225 L 313,227 L 313,228 L 314,228 L 315,229 L 319,229 L 322,226 L 322,181 L 319,178 L 316,178 L 315,179 L 314,179 L 309,184 L 308,184 L 307,185 L 306,184 L 304,184 L 303,183 L 302,183 L 301,182 L 299,182 L 298,181 L 297,181 L 296,180 L 294,180 L 293,179 L 291,179 L 290,178 L 288,178 L 287,177 L 284,177 L 283,176 L 279,176 L 278,175 Z" fill="#012c24" /><path d="M 262,109 L 261,110 L 253,110 L 252,111 L 247,111 L 246,112 L 242,112 L 241,113 L 238,113 L 237,114 L 234,114 L 233,115 L 231,115 L 230,116 L 228,116 L 227,117 L 225,117 L 224,118 L 223,118 L 222,119 L 220,119 L 219,120 L 218,120 L 217,121 L 216,121 L 215,122 L 214,122 L 213,123 L 212,123 L 211,124 L 210,124 L 209,125 L 208,125 L 207,126 L 206,126 L 205,127 L 204,127 L 202,129 L 201,129 L 199,131 L 198,131 L 197,132 L 196,132 L 193,135 L 192,135 L 189,138 L 188,138 L 180,146 L 179,146 L 177,148 L 177,149 L 170,156 L 170,157 L 166,161 L 166,162 L 164,164 L 164,165 L 162,167 L 162,168 L 160,170 L 160,171 L 158,173 L 158,174 L 157,175 L 157,176 L 156,177 L 156,178 L 155,179 L 155,180 L 154,181 L 154,182 L 153,183 L 153,184 L 152,185 L 152,186 L 151,187 L 151,188 L 150,189 L 150,190 L 149,191 L 149,193 L 148,194 L 148,195 L 147,196 L 147,198 L 146,199 L 146,201 L 145,202 L 145,204 L 144,205 L 144,208 L 143,209 L 143,211 L 142,212 L 142,215 L 141,216 L 141,220 L 140,221 L 140,226 L 139,227 L 139,233 L 138,234 L 138,243 L 137,244 L 137,265 L 138,266 L 138,276 L 139,277 L 139,282 L 140,283 L 140,287 L 141,288 L 141,292 L 142,293 L 142,296 L 143,297 L 143,299 L 144,300 L 144,303 L 145,304 L 145,306 L 146,307 L 146,309 L 147,310 L 147,312 L 148,313 L 148,315 L 149,316 L 149,317 L 150,318 L 150,319 L 151,320 L 151,322 L 152,323 L 152,324 L 153,325 L 153,326 L 154,327 L 154,328 L 155,329 L 155,330 L 156,331 L 156,332 L 157,333 L 157,334 L 159,336 L 159,337 L 161,339 L 161,340 L 162,341 L 162,342 L 165,345 L 165,346 L 167,348 L 167,349 L 171,353 L 171,354 L 186,369 L 187,369 L 191,373 L 192,373 L 194,375 L 195,375 L 197,377 L 198,377 L 200,379 L 201,379 L 202,380 L 203,380 L 205,382 L 206,382 L 207,383 L 208,383 L 209,384 L 210,384 L 211,385 L 212,385 L 213,386 L 214,386 L 215,387 L 216,387 L 217,388 L 219,388 L 220,389 L 221,389 L 222,390 L 224,390 L 225,391 L 227,391 L 228,392 L 230,392 L 231,393 L 233,393 L 234,394 L 237,394 L 238,395 L 241,395 L 242,396 L 246,396 L 247,397 L 253,397 L 254,398 L 282,398 L 283,397 L 288,397 L 289,396 L 293,396 L 294,395 L 297,395 L 298,394 L 301,394 L 302,393 L 304,393 L 305,392 L 307,392 L 308,391 L 310,391 L 311,390 L 312,390 L 313,389 L 314,389 L 315,388 L 316,388 L 317,387 L 318,387 L 319,386 L 320,386 L 321,385 L 322,385 L 323,384 L 324,384 L 326,382 L 327,382 L 329,380 L 330,380 L 333,377 L 334,377 L 348,363 L 348,362 L 351,359 L 351,358 L 353,356 L 353,355 L 354,354 L 354,353 L 356,351 L 356,350 L 357,349 L 357,348 L 358,347 L 358,346 L 359,345 L 359,344 L 360,343 L 360,341 L 361,340 L 361,339 L 362,338 L 362,336 L 363,335 L 363,333 L 364,332 L 364,330 L 365,329 L 365,326 L 366,325 L 366,321 L 367,320 L 367,317 L 366,316 L 366,315 L 365,314 L 364,314 L 363,313 L 361,313 L 360,314 L 359,314 L 357,316 L 357,317 L 355,319 L 355,320 L 354,321 L 354,322 L 353,323 L 353,324 L 352,325 L 352,326 L 351,327 L 351,328 L 350,329 L 350,330 L 349,331 L 349,332 L 348,333 L 348,334 L 347,335 L 347,336 L 346,337 L 346,338 L 344,340 L 344,341 L 343,342 L 343,343 L 340,346 L 340,347 L 337,350 L 337,351 L 326,362 L 325,362 L 322,365 L 321,365 L 319,367 L 318,367 L 316,369 L 315,369 L 314,370 L 313,370 L 312,371 L 311,371 L 310,372 L 309,372 L 308,373 L 307,373 L 306,374 L 304,374 L 303,375 L 301,375 L 300,376 L 298,376 L 297,377 L 294,377 L 293,378 L 289,378 L 288,379 L 264,379 L 263,378 L 259,378 L 258,377 L 255,377 L 254,376 L 252,376 L 251,375 L 249,375 L 248,374 L 247,374 L 246,373 L 244,373 L 243,372 L 242,372 L 241,371 L 240,371 L 238,369 L 237,369 L 236,368 L 235,368 L 233,366 L 232,366 L 228,362 L 227,362 L 218,353 L 218,352 L 214,348 L 214,347 L 212,345 L 212,344 L 209,341 L 209,340 L 208,339 L 208,338 L 206,336 L 206,335 L 205,334 L 205,333 L 204,332 L 204,331 L 202,329 L 202,327 L 201,326 L 201,325 L 200,324 L 200,323 L 199,322 L 199,320 L 198,319 L 198,318 L 197,317 L 197,315 L 196,314 L 196,312 L 195,311 L 195,309 L 194,308 L 194,306 L 193,305 L 193,302 L 192,301 L 192,298 L 191,297 L 191,294 L 190,293 L 190,289 L 189,288 L 189,284 L 188,283 L 188,276 L 187,275 L 187,265 L 186,264 L 186,238 L 187,237 L 187,227 L 188,226 L 188,220 L 189,219 L 189,214 L 190,213 L 190,209 L 191,208 L 191,204 L 192,203 L 192,200 L 193,199 L 193,196 L 194,195 L 194,193 L 195,192 L 195,190 L 196,189 L 196,187 L 197,186 L 197,184 L 198,183 L 198,182 L 199,181 L 199,179 L 200,178 L 200,177 L 201,176 L 201,175 L 202,174 L 202,173 L 203,172 L 203,171 L 204,170 L 204,169 L 205,168 L 205,167 L 206,166 L 206,165 L 208,163 L 208,162 L 210,160 L 210,159 L 212,157 L 212,156 L 216,152 L 216,151 L 225,142 L 226,142 L 229,139 L 230,139 L 233,136 L 234,136 L 235,135 L 236,135 L 237,134 L 238,134 L 240,132 L 242,132 L 243,131 L 244,131 L 245,130 L 246,130 L 247,129 L 249,129 L 250,128 L 252,128 L 253,127 L 256,127 L 257,126 L 261,126 L 262,125 L 282,125 L 283,126 L 287,126 L 288,127 L 291,127 L 292,128 L 295,128 L 296,129 L 297,129 L 298,130 L 300,130 L 301,131 L 302,131 L 303,132 L 304,132 L 305,133 L 306,133 L 307,134 L 308,134 L 309,135 L 310,135 L 312,137 L 313,137 L 315,139 L 316,139 L 329,152 L 329,153 L 331,155 L 331,156 L 333,158 L 333,159 L 335,161 L 335,162 L 336,163 L 336,164 L 337,165 L 337,166 L 338,167 L 338,169 L 339,170 L 339,171 L 340,172 L 340,174 L 341,175 L 341,176 L 342,177 L 342,179 L 343,180 L 343,183 L 344,184 L 344,186 L 345,187 L 345,189 L 346,190 L 346,191 L 351,196 L 353,196 L 354,197 L 355,196 L 356,196 L 359,193 L 359,187 L 358,186 L 358,173 L 357,172 L 357,157 L 356,156 L 356,138 L 355,137 L 355,116 L 352,113 L 350,113 L 349,114 L 348,114 L 346,116 L 346,117 L 343,120 L 343,121 L 339,125 L 334,125 L 333,124 L 331,124 L 330,123 L 329,123 L 328,122 L 326,122 L 325,121 L 324,121 L 323,120 L 321,120 L 320,119 L 318,119 L 317,118 L 316,118 L 315,117 L 312,117 L 311,116 L 309,116 L 308,115 L 306,115 L 305,114 L 302,114 L 301,113 L 297,113 L 296,112 L 292,112 L 291,111 L 286,111 L 285,110 L 275,110 L 274,109 Z" fill="#012c24" /><path d="M 0,0 L 0,511 L 511,511 L 1,511 L 0,510 L 0,1 L 1,0 L 511,0 Z" fill="#012c24" /></svg>