<?xml version="1.0" encoding="UTF-8" standalone="no"?>
<svg
   width="74.551956"
   height="89.541992"
   viewBox="0 0 74.551956 89.541992"
   version="1.1"
   id="svg42"
   sodipodi:docname="a.svg"
   inkscape:version="1.4.2 (f4327f4, 2025-05-13)"
   xmlns:inkscape="http://www.inkscape.org/namespaces/inkscape"
   xmlns:sodipodi="http://sodipodi.sourceforge.net/DTD/sodipodi-0.dtd"
   xmlns="http://www.w3.org/2000/svg"
   xmlns:svg="http://www.w3.org/2000/svg">
  <sodipodi:namedview
     id="namedview1"
     pagecolor="#ffffff"
     bordercolor="#000000"
     borderopacity="0.25"
     inkscape:showpageshadow="2"
     inkscape:pageopacity="0.0"
     inkscape:pagecheckerboard="0"
     inkscape:deskcolor="#d1d1d1"
     inkscape:zoom="6.4359974"
     inkscape:cx="40.242403"
     inkscape:cy="49.487279"
     inkscape:window-width="1920"
     inkscape:window-height="1017"
     inkscape:window-x="-8"
     inkscape:window-y="-8"
     inkscape:window-maximized="1"
     inkscape:current-layer="svg42" />
  <defs
     id="defs42" />
  <g
     id="g48"
     transform="translate(-222.58334,-657.66984)">
    <path
       d="m 236.96632,663.48433 c 16.647,-9.832 37.997,-7.151 49.451,7.709 4.10055,6.6679 1.41011,20.88586 2.49324,32.54835 0.60025,6.46308 6.91431,7.96866 7.0944,13.08543 0.28419,8.0745 0.0454,13.58517 -8.25025,20.35502 -8.355,6.119 -13.45239,11.8192 -22.41639,5.5792 -9.533,4.905 -20.336,6.75 -29.831,0.33 -3.908,-2.642 -7.88028,-6.6066 -10.29208,-12.84829 -2.99533,-4.32168 -3.25917,-19.44057 -0.49606,-25.36534 2.7631,-5.92478 3.46194,-5.94091 7.66766,-12.06013 1.75225,-2.54948 -3.23925,-6.12255 -4.18615,-12.18811 -0.94686,-6.06556 0.78248,-11.75925 8.76563,-17.14513 z"
       id="path45"
       sodipodi:nodetypes="ccssccccsssc" />
    <path
       fill="#fefefe"
       d="m 256.26459,664.56179 c 7.817,-0.555 15.568,0.223 21.743,5.234 10.408,8.446 2.832,25.474 3.2,36.758 0.24,3.874 4.797,5.193 4.813,9.087 0.035,8.686 -7.278,16.287 -16.078,16.09 -5.227,-0.117 -7.317,-2.237 -10.653,-5.8 -9.478,7.113 -20.356,9.932 -29.724,0.845 -2.632,-3.511 -4.103,-7.441 -4.053,-11.866 0.046,-4.216 1.524,-8.384 3.921,-11.829 9.525,-13.688 27.259,-9.765 30.221,-13.22 1.623,-1.895 1.823,-5.853 1.552,-8.191 -0.222,-1.913 -0.826,-3.938 -2.5,-5.052 -4.919,-3.272 -9.507,9.438 -17.183,11.21 -2.096,0.484 -4.506,0.688 -6.331,-0.69 -1.092,-0.824 -1.709,-2.073 -1.942,-3.394 -0.589,-3.332 0.88,-6.89 2.863,-9.505 4.982,-6.564 12.461,-8.506 20.151,-9.677 z"
       id="path46" />
    <path
       d="m 256.51678,699.96533 c 8.674,-0.219 5.699,12.377 -0.141,16.294 -9.028,-0.99 -5.945,-11.984 0.141,-16.294 z"
       id="path47" />
    <path
       d="m 238.21578,700.72933 1.528,0.496 c 0.195,1.948 -3.984,6.348 -4.868,8.93 -0.614,1.793 -0.965,3.12 -1.415,4.963 -0.316,0.086 -0.631,0.171 -0.947,0.257 -2.774,-4.595 2.482,-11.564 5.702,-14.646 z"
       id="path48" />
  </g>
</svg>
