<?xml version="1.0" encoding="UTF-8" standalone="no"?>
<svg
   width="100.61918"
   height="113.19092"
   viewBox="0 0 100.61918 113.19092"
   version="1.1"
   id="svg42"
   sodipodi:docname="c.svg"
   inkscape:version="1.4.2 (f4327f4, 2025-05-13)"
   xmlns:inkscape="http://www.inkscape.org/namespaces/inkscape"
   xmlns:sodipodi="http://sodipodi.sourceforge.net/DTD/sodipodi-0.dtd"
   xmlns="http://www.w3.org/2000/svg"
   xmlns:svg="http://www.w3.org/2000/svg">
  <sodipodi:namedview
     id="namedview1"
     pagecolor="#ffffff"
     bordercolor="#000000"
     borderopacity="0.25"
     inkscape:showpageshadow="2"
     inkscape:pageopacity="0.0"
     inkscape:pagecheckerboard="0"
     inkscape:deskcolor="#d1d1d1"
     inkscape:zoom="3.6001122"
     inkscape:cx="11.666303"
     inkscape:cy="57.914862"
     inkscape:window-width="1920"
     inkscape:window-height="1017"
     inkscape:window-x="-8"
     inkscape:window-y="-8"
     inkscape:window-maximized="1"
     inkscape:current-layer="svg42" />
  <defs
     id="defs42" />
  <g
     id="g49"
     transform="translate(-40.789095,-586.71764)">
    <path
       d="m 85.278027,587.06911 c 7.5273,-1.064 14.095,0.366 20.985003,3.232 9.498,-7.873 20.52381,2.01919 23.88212,10.93746 2.90508,9.07646 -1.42042,19.40927 -1.57262,30.3805 -1.17493,10.40762 3.97723,11.36371 6.1008,25.53082 2.05443,12.07123 -3.62069,27.78868 -14.7803,33.57522 -14.946,10.555 -35.955003,13.019 -51.377603,2.044 -7.446922,-5.57915 -8.5996,-8.165 -12.7416,-12.35 -29.7895,-30.096 -12.6922,-86.462 29.5042,-93.35 z"
       id="path43"
       sodipodi:nodetypes="ccccccccc" />
    <path
       fill="#fefefe"
       d="m 87.769967,593.56286 c 8.381,-1.19 13.102303,1.191 20.473303,4.412 3.165,-2.204 7.882,-5.3 11.266,-2.632 6.674,5.261 5.085,21.861 1,28.262 -3.706,5.806 -8.545,8.852 -13.488,3.172 -3.638,-4.179 -4.774,-10.343 -9.648603,-13.531 -6.1036,-4.129 -13.5254,-0.142 -17.0207,5.442 -3.7338,5.964 -4.9708,13.885 -3.6035,20.755 1.0069,5.269 3.4473,10.37 8.2192,13.4 16.479603,9.145 23.095603,-7.562 30.548603,-9.571 2.015,0.244 2.386,0.584 4.072,1.735 4.632,6.995 1.626,18.363 -3.081,24.252 -21.634503,27.066 -61.534303,18.792 -67.256003,-16.131 -4.481,-27.351 11.3267,-54.832 38.5187,-59.565 z"
       id="path44" />
    <path
       d="m 97.902025,635.75698 c 0.995,0.133 0.47,-0.021 1.536,0.575 -0.545,1.798 -4.05,4.063 -5.605,5.383 -6.349,5.388 -10.125,12.073 -13.525,19.489 l -0.834,0.682 -0.573,-0.432 c -1.01,-9.687 11.086,-21.316 19.001,-25.697 z"
       id="path61-5"
       transform="translate(-23.737965,-32.067076)" />
  </g>
</svg>
