<?xml version="1.0" encoding="UTF-8" standalone="no"?>
<svg
   width="95.12561"
   height="125.34827"
   viewBox="0 0 95.12561 125.34827"
   version="1.1"
   id="svg42"
   sodipodi:docname="g.svg"
   inkscape:version="1.4.2 (f4327f4, 2025-05-13)"
   inkscape:export-filename="g.svg"
   inkscape:export-xdpi="96"
   inkscape:export-ydpi="96"
   xmlns:inkscape="http://www.inkscape.org/namespaces/inkscape"
   xmlns:sodipodi="http://sodipodi.sourceforge.net/DTD/sodipodi-0.dtd"
   xmlns="http://www.w3.org/2000/svg"
   xmlns:svg="http://www.w3.org/2000/svg">
  <sodipodi:namedview
     id="namedview1"
     pagecolor="#ffffff"
     bordercolor="#000000"
     borderopacity="0.25"
     inkscape:showpageshadow="2"
     inkscape:pageopacity="0.0"
     inkscape:pagecheckerboard="0"
     inkscape:deskcolor="#d1d1d1"
     inkscape:zoom="6.5018849"
     inkscape:cx="40.757412"
     inkscape:cy="61.289919"
     inkscape:window-width="1920"
     inkscape:window-height="1017"
     inkscape:window-x="-8"
     inkscape:window-y="-8"
     inkscape:window-maximized="1"
     inkscape:current-layer="svg42" />
  <defs
     id="defs42" />
  <g
     id="g90"
     transform="translate(-854.79965,-860.44715)">
    <path
       d="m 868.14467,884.09644 c 11.462,-14.362 26.671,-18.237 44.185,-13.402 6.73,-9.405 16.382,-14.498 26.337,-5.697 12.99,11.484 12.07776,22.1858 2.873,35.412 l 0.006,0.631 c 0.016,10.957 -5.245,18.998 -12.648,26.487 13.335,9.563 13.7838,24.29149 2.66655,34.9386 -26.01133,24.91131 -58.61903,14.17724 -66.79595,8.09478 -12.12965,-9.02273 -11.90463,-27.18702 -2.89755,-32.13108 -6.80959,-8.6941 1.27779,-22.90552 7.48168,-24.39888 -8.50924,-9.60017 -5.22691,-26.71695 -1.20773,-29.93442 z"
       id="path84"
       sodipodi:nodetypes="ccccccssccc" />
    <g
       id="g89">
      <path
         fill="#fefefe"
         d="m 925.54667,866.72744 c 5.486,-0.614 9.797,0.778 9.327,7.393 -0.45,6.326 -3.296,9.516 -7.681,13.58 -1.203,11.003 -3.319,19.335 -12,26.055 -9.179,7.104 -18.474,8.456 -29.229,5.128 -1.184,-0.367 -1.565,0.216 -2.325,0.936 -2.929,7.361 5.775,8.077 10.744,7.606 7.598,-0.72 16.601,-3.94 23.938,-0.919 8.62,3.55 8.066,15.352 4.507,22.385 -4.687,9.894 -12.131,15.2 -22.168,18.973 -8.193,2.315 -14.903,3.141 -23.607,1.308 -9.024,-1.9 -19.227,-9.456 -16.635,-20.033 1.275,-5.202 4.292,-7.215 8.628,-9.858 -8.167,-12.239 -5.583,-18.19 6.77,-25.135 -5.526,-6.812 -8.158,-12.858 -4.781,-21.751 4.308,-11.347 15.913,-17.067 27.491,-17.752 4.354,-0.257 11.861,3.314 16.36,2.357 4.871,-3.772 3.616,-6.98 10.661,-10.273 z"
         id="path85"
         sodipodi:nodetypes="cccccccccccccccccc" />
      <path
         d="m 897.11667,884.13344 c 11.405,-0.351 8.382,19.871 1.586,25.879 -10.749,1.622 -8.612,-20.278 -1.586,-25.879 z"
         id="path86" />
      <path
         d="m 880.26867,943.94144 c 0.188,0.035 0.376,0.069 0.564,0.104 l 0.944,0.155 c 5.377,0.936 16.04432,-1.54 17.794,3.75 0.86804,2.62442 -0.85839,4.68769 -3.079,6.142 -7.76361,5.0845 -20.236,1.206 -16.223,-10.151 z"
         id="path87"
         sodipodi:nodetypes="cccssc" />
      <path
         d="m 924.76867,869.91744 1.83,0.288 0.446,0.645 c -0.641,1.907 -4.007,4.808 -5.651,6.452 l -0.926,0.611 -0.729,-0.282 c -0.249,-3.019 2.908,-6.01 5.03,-7.714 z"
         id="path88" />
      <path
         d="m 864.21167,948.94744 c 1.671,1.214 3.209,10.134 3.869,12.55 -4.506,-2.364 -5.655,-8.047 -3.869,-12.55 z"
         id="path89" />
    </g>
  </g>
</svg>
