<?xml version="1.0" encoding="UTF-8" standalone="no"?>
<svg
   width="85.631195"
   height="110.31918"
   viewBox="0 0 85.631195 110.31918"
   version="1.1"
   id="svg42"
   xmlns="http://www.w3.org/2000/svg"
   xmlns:svg="http://www.w3.org/2000/svg">
  <defs
     id="defs42" />
  <g
     id="g76"
     transform="translate(-677.97345,-861.19421)">
    <path
       d="m 754.45988,966.09233 c -6.11851,2.97082 -20.61128,9.46118 -27.57428,1.65318 -9.746,4.737 -31.9033,6.03859 -41.6943,-2.23415 -4.56064,-3.85344 -10.50677,-14.01195 -5.00853,-20.90914 4.86363,-6.10111 6.30084,-11.75637 7.80576,-19.97396 1.50492,-8.2176 3.15954,-16.58263 4.32379,-22.91178 1.16425,-6.32914 -0.76256,-14.18124 -1.7666,-16.44533 -4.01616,-9.05637 15.01888,-21.54164 26.26088,-23.47764 8.985,-1.547 13.6581,-0.33793 14.818,6.456 2.23197,13.07335 -5.49056,17.31 8.418,15.533 9.96355,-1.27297 17.9136,3.12307 20.24,12.099 2.02995,7.83213 -3.36201,19.7861 -2.97626,34.72291 0.38576,14.93682 8.08275,17.13647 5.91378,25.63265 -1.0872,4.25872 -2.64173,6.88444 -8.76024,9.85526 z"
       id="path73" />
    <path
       fill="#fefefe"
       d="m 716.4706,867.85051 c 17.219,-1.448 0.868,20.301 5.147,28.43 0.784,0.347 1.629,0.693 2.417,0.07 6.138,-4.851 17.978,-9.344 24.944,-3.385 11.073,9.471 0.493,30.806 1.144,43.165 0.256,4.842 2.377,6.764 3.201,11.269 0.004,7.62 -6.665,9.296 -12.347,9.494 -15.153,0.53 -25.816,0.536 -15.211,-17.215 3.385,-5.667 4.941,-18.664 4.8,-25.616 -1.17,-3.395 -4.175,-7.594 -7.74,-5.746 -7.52,4.164 -7.763,22.914 -8.19,30.848 2.364,4.989 2.43,15.295 -4.647,16.663 -17.699,3.419 -38.367,3.583 -19.265,-17.22 1.74,-5.006 10.473,-43.595 8.511,-46.231 -8.852,-11.889 -5.116,-18.174 17.236,-24.526 z"
       id="path74" />
    <path
       d="m 716.0846,870.84951 c 2.362,0.228 1.355,-0.176 3.204,1.081 l 0.121,1.02 c -3.014,3.271 -7.088,0.906 -12.137,3.67 -1.094,0.822 -1.371,1.236 -2.709,1.315 l -0.27,-0.732 c 2.265,-3.606 7.896,-5.351 11.791,-6.354 z"
       id="path75" />
    <path
       d="m 738.8436,893.24751 c 6.504,-0.01 14.121,5.238 10.548,11.843 -1.46,-1.956 -2.196,-5.216 -3.942,-7.052 -1.919,-2.016 -5.579,-1.404 -7.373,-3.222 z"
       id="path76" />
  </g>
</svg>
