<?xml version="1.0" encoding="UTF-8" standalone="no"?>
<svg
   width="52.389874"
   height="107.15135"
   viewBox="0 0 52.389874 107.15135"
   version="1.1"
   id="svg42"
   xmlns="http://www.w3.org/2000/svg"
   xmlns:svg="http://www.w3.org/2000/svg">
  <defs
     id="defs42" />
  <g
     id="g80"
     transform="translate(-769.22909,-854.8725)">
    <path
       d="m 801.70791,855.02763 c 11.019,-1.294 19.70987,5.6491 19.91013,15.53586 0.0858,4.23505 -5.8155,5.66297 -4.76961,15.23732 1.11277,10.18658 -2.93189,23.06865 -3.58858,35.02609 -0.65669,11.95744 5.08315,21.25148 4.22279,27.11408 -0.78136,5.32435 -1.9148,9.6634 -7.89826,11.80578 -9.5394,3.41559 -25.80631,3.28911 -34.91363,-2.44544 -2.1365,-1.34528 -7.29617,-7.66635 -4.75243,-14.50882 3.69319,-9.9344 6.31746,-15.01779 7.44519,-25.21722 1.83087,-16.55881 -8.14606,-17.3672 -3.69204,-23.22014 2.75586,-3.62141 7.63904,-7.33504 6.146,-9.55459 -11.16581,-16.59916 6.46744,-27.58292 21.89044,-29.77292 z"
       id="path77" />
    <path
       fill="#fefefe"
       d="m 806.45491,886.50963 c 1.607,0.155 1.494,0.145 2.883,0.988 4.301,6.259 -8.087,38.807 -3.114,47.418 11.316,19.593 -15.611,18.613 -27.401,17.1 -7.694,-3.136 -5.939,-8.831 -1.603,-14.198 5.522,-6.098 5.858,-13.173 7.264,-19.534 2.625,-11.877 -2.222,-11.983 -4.363,-18.17 -2.753,-7.957 20.111,-12.622 26.334,-13.604 z"
       id="path78" />
    <path
       fill="#fefefe"
       d="m 802.87291,860.96163 c 16.44,-1.261 15.069,18.9 -7.575,22.317 -20.035,0.216 -10.575,-19.369 7.575,-22.317 z"
       id="path79" />
    <path
       d="m 802.11091,863.41063 c 2.615,-0.034 3.52,0.059 5.586,1.644 l -0.184,0.599 c -3.224,1.166 -6.896,0.79 -10.782,1.977 -1.413,0.638 -3.233,1.734 -4.602,1.394 l 0.32,-0.857 c 3.821,-3.024 4.936,-3.514 9.662,-4.757 z"
       id="path80" />
  </g>
</svg>
