<?xml version="1.0" encoding="UTF-8" standalone="no"?>
<svg
   width="54.386383"
   height="108.57751"
   viewBox="0 0 54.386383 108.57751"
   version="1.1"
   id="svg42"
   sodipodi:docname="l.svg"
   inkscape:version="1.4.2 (f4327f4, 2025-05-13)"
   xmlns:inkscape="http://www.inkscape.org/namespaces/inkscape"
   xmlns:sodipodi="http://sodipodi.sourceforge.net/DTD/sodipodi-0.dtd"
   xmlns="http://www.w3.org/2000/svg"
   xmlns:svg="http://www.w3.org/2000/svg">
  <sodipodi:namedview
     id="namedview1"
     pagecolor="#ffffff"
     bordercolor="#000000"
     borderopacity="0.25"
     inkscape:showpageshadow="2"
     inkscape:pageopacity="0.0"
     inkscape:pagecheckerboard="0"
     inkscape:deskcolor="#d1d1d1"
     inkscape:zoom="5.3076557"
     inkscape:cx="34.666906"
     inkscape:cy="56.993146"
     inkscape:window-width="1920"
     inkscape:window-height="1017"
     inkscape:window-x="-8"
     inkscape:window-y="-8"
     inkscape:window-maximized="1"
     inkscape:current-layer="svg42" />
  <defs
     id="defs42" />
  <g
     id="g51"
     transform="translate(-349.57418,-716.4685)">
    <g
       id="g50">
      <path
         d="m 359.13688,784.38711 c 4.78318,-10.57346 5.48714,-27.99836 4.5046,-36.06977 -4.505,-4.6 -7.521,-8.616 -5.785,-15.575 1.018,-4.132 4.894,-8.437 8.792,-10.145 10.651,-4.667 27.112,-11.606 34.22,1.613 2.62319,4.78025 -0.12891,20.42797 -2.8341,39.94719 -1.4393,10.38521 -1.62192,18.94759 -1.6486,24.48982 -0.046,9.56021 5.82884,9.4534 5.40824,16.26482 -0.21535,10.44504 -16.74415,17.36886 -27.17015,17.29186 -4.871,-0.036 -18.00382,-3.1297 -19.82636,-5.51285 -3.48264,-3.9704 -4.0784,-9.17777 -3.97222,-12.97966 0.22274,-7.9759 1.00503,-11.092 8.31159,-19.32441 z"
         id="path49"
         sodipodi:nodetypes="cccccsscccsc" />
      <path
         fill="#fefefe"
         d="m 388.30739,721.86143 c 10.324,-1.027 6.499,9.339 5.501,15.931 -2.487,16.441 -6.226,33.018 -6.372,49.703 -0.045,5.178 4.97,7.553 4.739,12.562 -1.474,11.532 -22.299,9.83 -29.686,8.555 -4.658,-1.355 -7.215,-4.104 -6.103,-9.082 0.749,-3.353 6.156,-7.223 6.881,-9.633 4.116,-13.697 7.479,-30.669 7.094,-44.933 -1.878,-2.709 -5.005,-5.029 -5.521,-8.473 -0.897,-5.975 5.253,-9.315 10.006,-11.12 4.309,-1.638 8.888,-2.758 13.461,-3.51 z"
         id="path50" />
    </g>
  </g>
</svg>
