<?xml version="1.0" encoding="UTF-8" standalone="no"?>
<svg
   width="86.064087"
   height="100.88562"
   viewBox="0 0 86.064087 100.88562"
   version="1.1"
   id="svg42"
   sodipodi:docname="n.svg"
   inkscape:version="1.4.2 (f4327f4, 2025-05-13)"
   xmlns:inkscape="http://www.inkscape.org/namespaces/inkscape"
   xmlns:sodipodi="http://sodipodi.sourceforge.net/DTD/sodipodi-0.dtd"
   xmlns="http://www.w3.org/2000/svg"
   xmlns:svg="http://www.w3.org/2000/svg">
  <sodipodi:namedview
     id="namedview1"
     pagecolor="#ffffff"
     bordercolor="#000000"
     borderopacity="0.25"
     inkscape:showpageshadow="2"
     inkscape:pageopacity="0.0"
     inkscape:pagecheckerboard="0"
     inkscape:deskcolor="#d1d1d1"
     inkscape:zoom="8.0784556"
     inkscape:cx="45.800834"
     inkscape:cy="50.566596"
     inkscape:window-width="1920"
     inkscape:window-height="1017"
     inkscape:window-x="-8"
     inkscape:window-y="-8"
     inkscape:window-maximized="1"
     inkscape:current-layer="svg42" />
  <defs
     id="defs42" />
  <g
     id="g83"
     transform="translate(-782.40155,-871.70067)"
     inkscape:export-filename="n.svg"
     inkscape:export-xdpi="96"
     inkscape:export-ydpi="96">
    <path
       d="m 791.84718,903.77408 c -0.22749,-6.32528 5.9336,-13.83263 12.58851,-15.71799 9.10171,-2.57856 18.29007,-6.01472 26.37607,0.51928 17.692,-8.86 34.07302,-3.41458 35.50999,13.58722 0.80537,9.52885 -4.41284,18.42784 -3.1338,31.11856 1.42242,14.11336 4.05847,22.85649 -5.13597,29.10098 -5.14215,3.49234 -16.80322,6.31809 -23.89815,3.17645 -6.45301,-1.75936 -12.74102,-0.38007 -14.39102,0.21593 -9.52736,1.45521 -15.5349,0.67428 -23.4259,-1.23007 -12.07167,-2.91328 -16.31897,-16.4239 -6.24671,-29.45171 10.61967,-13.73584 2.0867,-22.15057 1.75698,-31.31865 z"
       id="path81"
       sodipodi:nodetypes="sscsssccsss" />
    <path
       fill="#fefefe"
       d="m 816.60655,889.51737 c 2.132,-0.263 4.516,-0.735 6.598,0.038 3.304,1.227 2.826,4.11 4.663,6.447 3.88,0.87 9.019,-7.854 17.107,-6.924 24.223,2.785 12.002,28.963 11.557,44.228 -0.136,4.657 3.668,9.714 3.202,13.996 -1.028,9.439 -14.82,9.179 -21.847,8.806 -3.079,-0.16 -7.678,-0.897 -9.455,-3.407 -3.583,-5.063 1.883,-10.161 3.88,-14.55 2.375,-5.955 3.478,-12.908 4.33,-19.153 0.364,-2.913 0.461,-6.577 -1.089,-9.159 -1.471,-2.451 -5.931,-3.676 -7.852,-1.426 -5.896,6.904 -5.372,20.168 -5.949,28.818 0.229,3.098 2.144,6.725 1.596,9.801 -1.987,11.144 -18.357,9.163 -26.588,8.371 -1.647,-0.158 -4.641,-1.869 -5.395,-3.555 -2.759,-6.165 5.294,-11.66 6.965,-17.13 0.819,-2.788 5.262,-21.022 3.293,-23.497 -8.37,-10.515 -0.79,-16.682 14.984,-21.704 z"
       id="path82" />
    <path
       d="m 814.02755,892.92737 c 2.168,-0.192 2.048,-0.512 3.762,0.257 -0.442,1.652 -8.916,5.014 -11.362,6.771 -0.975,0.766 -0.678,0.559 -1.828,1.054 l -0.426,-0.744 c 1.548,-4.056 6.08,-5.966 9.854,-7.338 z"
       id="path83" />
  </g>
</svg>
