<?xml version="1.0" encoding="UTF-8" standalone="no"?>
<svg
   width="83.741356"
   height="89.839333"
   viewBox="0 0 83.741356 89.839333"
   version="1.1"
   id="svg42"
   sodipodi:docname="o.svg"
   inkscape:version="1.4.2 (f4327f4, 2025-05-13)"
   inkscape:export-filename="o.svg"
   inkscape:export-xdpi="96"
   inkscape:export-ydpi="96"
   xmlns:inkscape="http://www.inkscape.org/namespaces/inkscape"
   xmlns:sodipodi="http://sodipodi.sourceforge.net/DTD/sodipodi-0.dtd"
   xmlns="http://www.w3.org/2000/svg"
   xmlns:svg="http://www.w3.org/2000/svg">
  <sodipodi:namedview
     id="namedview1"
     pagecolor="#ffffff"
     bordercolor="#000000"
     borderopacity="0.25"
     inkscape:showpageshadow="2"
     inkscape:pageopacity="0.0"
     inkscape:pagecheckerboard="0"
     inkscape:deskcolor="#d1d1d1"
     inkscape:zoom="6.4146962"
     inkscape:cx="56.588806"
     inkscape:cy="39.050953"
     inkscape:window-width="1920"
     inkscape:window-height="1017"
     inkscape:window-x="-8"
     inkscape:window-y="-8"
     inkscape:window-maximized="1"
     inkscape:current-layer="svg42" />
  <defs
     id="defs42" />
  <g
     id="g58"
     transform="translate(-721.23371,-761.03224)">
    <path
       d="m 735.75622,773.34076 c 17.592,-15.884 43.42003,-17.20861 59.32803,0.81539 7.145,8.096 7.82405,11.84526 8.92359,24.4515 0.77942,26.44668 -17.28274,43.96581 -34.64816,50.26141 -11.10281,1.70703 -23.72375,2.92093 -34.21575,-8.91907 -4.929,-5.561 -7.44353,-7.12855 -10.96353,-14.49055 -3.15994,-6.57843 -2.95574,-16.25355 -2.0784,-26.68532 0.87733,-10.43178 6.62733,-20.68008 13.65422,-25.43336 z"
       id="path55"
       sodipodi:nodetypes="cccccccc" />
    <path
       fill="#fefefe"
       d="m 760.42622,767.80276 c 41.104,-4.239 42.205,57.265 -0.187,67.565 -32.75,3.542 -39.28,-29.538 -24.626,-52.081 5.746,-8.84 14.514,-13.62 24.813,-15.484 z"
       id="path56" />
    <path
       d="m 756.61322,783.64376 c 6.551,-0.698 8.971,5.186 9.881,10.713 1.273,7.735 4.447,20.553 -3.082,25.757 -5.969,0.156 -8.38,-5.432 -9.557,-10.553 -1.861,-8.098 -3.741,-19.46 2.758,-25.917 z"
       id="path57" />
    <path
       d="m 766.31722,770.76976 c 7.874,-0.498 18.188,4.893 18.417,13.568 -3.678,-3.078 -5.961,-6.807 -10.507,-9.187 -3.095,-1.621 -6.924,-1.1 -7.91,-4.381 z"
       id="path58" />
  </g>
</svg>
