<?xml version="1.0" encoding="UTF-8" standalone="no"?>
<svg
   width="84.211006"
   height="114.15369"
   viewBox="0 0 84.211006 114.15369"
   version="1.1"
   id="svg42"
   sodipodi:docname="y.svg"
   inkscape:version="1.4.2 (f4327f4, 2025-05-13)"
   xmlns:inkscape="http://www.inkscape.org/namespaces/inkscape"
   xmlns:sodipodi="http://sodipodi.sourceforge.net/DTD/sodipodi-0.dtd"
   xmlns="http://www.w3.org/2000/svg"
   xmlns:svg="http://www.w3.org/2000/svg">
  <sodipodi:namedview
     id="namedview1"
     pagecolor="#ffffff"
     bordercolor="#000000"
     borderopacity="0.25"
     inkscape:showpageshadow="2"
     inkscape:pageopacity="0.0"
     inkscape:pagecheckerboard="0"
     inkscape:deskcolor="#d1d1d1"
     inkscape:zoom="7.1394979"
     inkscape:cx="45.521409"
     inkscape:cy="57.076843"
     inkscape:window-width="1920"
     inkscape:window-height="1017"
     inkscape:window-x="-8"
     inkscape:window-y="-8"
     inkscape:window-maximized="1"
     inkscape:current-layer="svg42" />
  <defs
     id="defs42" />
  <g
     id="g54"
     transform="translate(-577.41614,-748.66392)">
    <path
       d="m 581.91414,758.67718 c 5.79953,-8.19472 14.585,-9.423 24.564,-9.548 7.939,-0.1 11.59,1.828 17.222,6.953 8.57,-8.455 20.193,-9.817 30.714,-3.393 3.115,1.902 4.41159,3.26608 5.78832,6.73075 0.77373,1.94716 -0.24576,9.6433 -6.23977,17.83712 -6.05556,8.27797 -5.07224,22.69333 -6.90505,31.86008 -4.07978,20.40493 -17.79504,63.30446 -50.09904,49.87646 -4.217,-1.752 -7.99652,-3.26545 -10.77412,-6.38108 -3.85457,-4.32368 -6.20876,-10.14078 -7.08755,-15.86613 -0.79539,-5.18202 -1.17552,-10.85496 1.81273,-15.62331 1.91432,-3.08451 4.49848,-5.3889 7.60296,-7.29316 3.10448,-1.90425 7.56967,-1.58749 9.46424,-0.13005 7.81215,6.00971 -1.74242,-15.06423 -5.18275,-21.45398 -9.57814,-17.78956 -16.09506,-26.19978 -10.87997,-33.5687 z"
       id="path51"
       sodipodi:nodetypes="sccsssscaacssss" />
    <path
       fill="#fefefe"
       d="m 638.39414,755.00718 c 6.171,-0.322 15.879,1.341 15.951,9.137 0.042,4.51 -6.871,10.915 -8.795,15.243 -6.177,13.743 -10.582,28.265 -17.359,41.745 -1.689,3.359 -3.177,6.315 -5.314,9.404 -6.005,8.703 -14.49,17.727 -26.016,17.053 -9.941,-0.581 -15.211,-10.507 -13.576,-19.607 0.574,-3.194 1.818,-6.075 4.546,-7.995 4.321,-3.041 9.732,-2.678 12.465,2.191 0.094,0.146 0.188,0.293 0.282,0.439 1.364,2.681 2.631,4.765 6.052,3.965 1.84,-1.709 2.123,-4.342 1.333,-6.691 -4.515,-13.441 -9.09,-27.073 -14.633,-40.125 -1.928,-4.541 -9.801,-9.541 -6.965,-15.412 4.034,-8.337 19.44,-11.221 27.395,-7.907 7.45,3.103 4.028,10.729 3.986,16.71 -0.047,4.002 2.592,14.157 6.532,15.888 8.173,-1.97 5.965,-15.627 4.076,-21.487 -2.464,-7.642 3.114,-11.189 10.04,-12.551 z"
       id="path52" />
    <path
       d="m 603.00614,757.43518 c 2.789,-0.183 6.955,-0.257 8.961,1.881 l -0.272,1.012 c -0.949,0.37 -6.991,-0.028 -9.014,0.01 -2.251,0.674 -4.502,1.613 -6.748,1.301 l -0.46,-0.674 c 1.957,-2.381 4.598,-2.757 7.533,-3.53 z"
       id="path53" />
    <path
       d="m 638.82414,757.39518 c 3.056,0.034 8.287,0.271 9.651,3.484 l -0.654,0.919 c -2.059,-0.604 -8.191,-2.098 -9.422,-3.212 z"
       id="path54" />
  </g>
</svg>
