{
  "accessors": [
    {
      "bufferView": 2,
      "componentType": 5126,
      "count": 65532,
      "max": [
        7.859291076660156,
        3.3980512619018555,
        12.762495040893555
      ],
      "min": [
        -3.2233200073242188,
        -4.265486240386963,
        -0.08605524897575378
      ],
      "type": "VEC3"
    },
    {
      "bufferView": 2,
      "byteOffset": 786384,
      "componentType": 5126,
      "count": 65532,
      "max": [
        0.9999908208847046,
        0.9999947547912598,
        0.9998971223831177
      ],
      "min": [
        -0.9999786615371704,
        -0.9999958276748657,
        -0.9999799728393555
      ],
      "type": "VEC3"
    },
    {
      "bufferView": 1,
      "componentType": 5126,
      "count": 65532,
      "max": [
        0.9965929985046387,
        0.9989669919013977
      ],
      "min": [
        0.025198012590408325,
        0.002251983154565096
      ],
      "type": "VEC2"
    },
    {
      "bufferView": 0,
      "componentType": 5125,
      "count": 314190,
      "type": "SCALAR"
    },
    {
      "bufferView": 2,
      "byteOffset": 1572768,
      "componentType": 5126,
      "count": 65532,
      "max": [
        7.779099464416504,
        1.5657386779785156,
        11.919150352478027
      ],
      "min": [
        -8.24975872039795,
        -4.063887596130371,
        0.4682648777961731
      ],
      "type": "VEC3"
    },
    {
      "bufferView": 2,
      "byteOffset": 2359152,
      "componentType": 5126,
      "count": 65532,
      "max": [
        0.999984622001648,
        0.9999885559082031,
        0.9425350427627563
      ],
      "min": [
        -0.9999769926071167,
        -0.9999552965164185,
        -0.9999690055847168
      ],
      "type": "VEC3"
    },
    {
      "bufferView": 1,
      "byteOffset": 524256,
      "componentType": 5126,
      "count": 65532,
      "max": [
        0.9993692636489868,
        0.987353503704071
      ],
      "min": [
        0.012236028909683228,
        0.005964996293187141
      ],
      "type": "VEC2"
    },
    {
      "bufferView": 0,
      "byteOffset": 1256760,
      "componentType": 5125,
      "count": 308196,
      "type": "SCALAR"
    },
    {
      "bufferView": 2,
      "byteOffset": 3145536,
      "componentType": 5126,
      "count": 65532,
      "max": [
        3.89943790435791,
        3.3186395168304443,
        11.439783096313477
      ],
      "min": [
        -4.04489278793335,
        -3.6817984580993652,
        -0.07404569536447525
      ],
      "type": "VEC3"
    },
    {
      "bufferView": 2,
      "byteOffset": 3931920,
      "componentType": 5126,
      "count": 65532,
      "max": [
        0.9999985694885254,
        0.9999984502792358,
        0.8882325291633606
      ],
      "min": [
        -0.9999990463256836,
        -0.9999982118606567,
        -0.9999690055847168
      ],
      "type": "VEC3"
    },
    {
      "bufferView": 1,
      "byteOffset": 1048512,
      "componentType": 5126,
      "count": 65532,
      "max": [
        0.9884652495384216,
        0.9081882238388062
      ],
      "min": [
        0.0014689862728118896,
        0.0013610126916319132
      ],
      "type": "VEC2"
    },
    {
      "bufferView": 0,
      "byteOffset": 2489544,
      "componentType": 5125,
      "count": 316791,
      "type": "SCALAR"
    },
    {
      "bufferView": 2,
      "byteOffset": 4718304,
      "componentType": 5126,
      "count": 65532,
      "max": [
        6.269302845001221,
        3.3135628700256348,
        12.683870315551758
      ],
      "min": [
        -7.833829879760742,
        -4.210049152374268,
        0.043700627982616425
      ],
      "type": "VEC3"
    },
    {
      "bufferView": 2,
      "byteOffset": 5504688,
      "componentType": 5126,
      "count": 65532,
      "max": [
        0.9999876022338867,
        0.9999974966049194,
        0.9996887445449829
      ],
      "min": [
        -0.9999699592590332,
        -0.9999446868896484,
        -0.9998469352722168
      ],
      "type": "VEC3"
    },
    {
      "bufferView": 1,
      "byteOffset": 1572768,
      "componentType": 5126,
      "count": 65532,
      "max": [
        0.9881632924079895,
        0.9981792569160461
      ],
      "min": [
        0.013777993619441986,
        0.000910997623577714
      ],
      "type": "VEC2"
    },
    {
      "bufferView": 0,
      "byteOffset": 3756708,
      "componentType": 5125,
      "count": 311922,
      "type": "SCALAR"
    },
    {
      "bufferView": 2,
      "byteOffset": 6291072,
      "componentType": 5126,
      "count": 65532,
      "max": [
        7.13836669921875,
        2.679894208908081,
        12.259881973266602
      ],
      "min": [
        -8.24811840057373,
        -3.9368512630462646,
        0.05645671486854553
      ],
      "type": "VEC3"
    },
    {
      "bufferView": 2,
      "byteOffset": 7077456,
      "componentType": 5126,
      "count": 65532,
      "max": [
        0.9999904632568359,
        0.999972939491272,
        0.998709499835968
      ],
      "min": [
        -0.9999929666519165,
        -0.9999935626983643,
        -0.999907374382019
      ],
      "type": "VEC3"
    },
    {
      "bufferView": 1,
      "byteOffset": 2097024,
      "componentType": 5126,
      "count": 65532,
      "max": [
        0.9964300394058228,
        0.9900585412979126
      ],
      "min": [
        0.0187345240265131,
        0.05034824460744858
      ],
      "type": "VEC2"
    },
    {
      "bufferView": 0,
      "byteOffset": 5004396,
      "componentType": 5125,
      "count": 320949,
      "type": "SCALAR"
    },
    {
      "bufferView": 2,
      "byteOffset": 7863840,
      "componentType": 5126,
      "count": 65532,
      "max": [
        7.6682538986206055,
        3.196969985961914,
        12.693109512329102
      ],
      "min": [
        -7.997082710266113,
        -3.7921042442321777,
        0.9159334301948547
      ],
      "type": "VEC3"
    },
    {
      "bufferView": 2,
      "byteOffset": 8650224,
      "componentType": 5126,
      "count": 65532,
      "max": [
        0.9999910593032837,
        0.9999995231628418,
        0.9993706941604614
      ],
      "min": [
        -0.9999953508377075,
        -0.9999954700469971,
        -0.9995739459991455
      ],
      "type": "VEC3"
    },
    {
      "bufferView": 1,
      "byteOffset": 2621280,
      "componentType": 5126,
      "count": 65532,
      "max": [
        0.9988592267036438,
        0.9918877482414246
      ],
      "min": [
        0.0027669966220855713,
        0.004941106773912907
      ],
      "type": "VEC2"
    },
    {
      "bufferView": 0,
      "byteOffset": 6288192,
      "componentType": 5125,
      "count": 310230,
      "type": "SCALAR"
    },
    {
      "bufferView": 2,
      "byteOffset": 9436608,
      "componentType": 5126,
      "count": 65532,
      "max": [
        4.095048904418945,
        3.302595376968384,
        12.677736282348633
      ],
      "min": [
        -4.54301643371582,
        -4.257814407348633,
        -0.02913679927587509
      ],
      "type": "VEC3"
    },
    {
      "bufferView": 2,
      "byteOffset": 10222992,
      "componentType": 5126,
      "count": 65532,
      "max": [
        0.9999898672103882,
        0.9982709288597107,
        0.9999873638153076
      ],
      "min": [
        -0.9999984502792358,
        -0.9999750852584839,
        -0.9995739459991455
      ],
      "type": "VEC3"
    },
    {
      "bufferView": 1,
      "byteOffset": 3145536,
      "componentType": 5126,
      "count": 65532,
      "max": [
        0.9914731979370117,
        0.9984660148620605
      ],
      "min": [
        0.03722701221704483,
        0.00012701752712018788
      ],
      "type": "VEC2"
    },
    {
      "bufferView": 0,
      "byteOffset": 7529112,
      "componentType": 5125,
      "count": 299514,
      "type": "SCALAR"
    },
    {
      "bufferView": 2,
      "byteOffset": 11009376,
      "componentType": 5126,
      "count": 18502,
      "max": [
        4.186676979064941,
        3.3032150268554688,
        11.65272331237793
      ],
      "min": [
        -4.663012981414795,
        -4.1930460929870605,
        0.22245687246322632
      ],
      "type": "VEC3"
    },
    {
      "bufferView": 2,
      "byteOffset": 11231400,
      "componentType": 5126,
      "count": 18502,
      "max": [
        0.999904990196228,
        0.9998924732208252,
        0.9992187023162842
      ],
      "min": [
        -0.9998635053634644,
        -0.9995007514953613,
        -0.999909520149231
      ],
      "type": "VEC3"
    },
    {
      "bufferView": 1,
      "byteOffset": 3669792,
      "componentType": 5126,
      "count": 18502,
      "max": [
        0.9964170455932617,
        0.9843586087226868
      ],
      "min": [
        0.009139003232121468,
        0.003892064094543457
      ],
      "type": "VEC2"
    },
    {
      "bufferView": 0,
      "byteOffset": 8727168,
      "componentType": 5125,
      "count": 84000,
      "type": "SCALAR"
    }
  ],
  "asset": {
    "extras": {
      "author": "csheffield (https://sketchfab.com/csheffield)",
      "license": "CC-BY-4.0 (http://creativecommons.org/licenses/by/4.0/)",
      "source": "https://sketchfab.com/3d-models/real-army-jacket-730e9269cdb647f1898b2b87190d6b4e",
      "title": "REAL Army Jacket"
    },
    "generator": "Sketchfab-13.4.0",
    "version": "2.0"
  },
  "bufferViews": [
    {
      "buffer": 0,
      "byteLength": 9063168,
      "name": "floatBufferViews",
      "target": 34963
    },
    {
      "buffer": 0,
      "byteLength": 3817808,
      "byteOffset": 9063168,
      "byteStride": 8,
      "name": "floatBufferViews",
      "target": 34962
    },
    {
      "buffer": 0,
      "byteLength": 11453424,
      "byteOffset": 12880976,
      "byteStride": 12,
      "name": "floatBufferViews",
      "target": 34962
    }
  ],
  "buffers": [
    {
      "byteLength": 24334400,
      "uri": "scene.bin"
    }
  ],
  "images": [
    {
      "uri": "textures/GoB_ArmyJacket_low_baseColor.png"
    },
    {
      "uri": "textures/GoB_ArmyJacket_low_metallicRoughness.png"
    }
  ],
  "materials": [
    {
      "name": "GoB_ArmyJacket_low",
      "pbrMetallicRoughness": {
        "baseColorTexture": {
          "index": 0
        },
        "metallicFactor": 0.0,
        "metallicRoughnessTexture": {
          "index": 1
        }
      }
    }
  ],
  "meshes": [
    {
      "name": "ArmyJacket_MidRez.001_GoB_ArmyJacket_low_0",
      "primitives": [
        {
          "attributes": {
            "NORMAL": 1,
            "POSITION": 0,
            "TEXCOORD_0": 2
          },
          "indices": 3,
          "material": 0,
          "mode": 4
        }
      ]
    },
    {
      "name": "ArmyJacket_MidRez.001_GoB_ArmyJacket_low_0",
      "primitives": [
        {
          "attributes": {
            "NORMAL": 5,
            "POSITION": 4,
            "TEXCOORD_0": 6
          },
          "indices": 7,
          "material": 0,
          "mode": 4
        }
      ]
    },
    {
      "name": "ArmyJacket_MidRez.001_GoB_ArmyJacket_low_0",
      "primitives": [
        {
          "attributes": {
            "NORMAL": 9,
            "POSITION": 8,
            "TEXCOORD_0": 10
          },
          "indices": 11,
          "material": 0,
          "mode": 4
        }
      ]
    },
    {
      "name": "ArmyJacket_MidRez.001_GoB_ArmyJacket_low_0",
      "primitives": [
        {
          "attributes": {
            "NORMAL": 13,
            "POSITION": 12,
            "TEXCOORD_0": 14
          },
          "indices": 15,
          "material": 0,
          "mode": 4
        }
      ]
    },
    {
      "name": "ArmyJacket_MidRez.001_GoB_ArmyJacket_low_0",
      "primitives": [
        {
          "attributes": {
            "NORMAL": 17,
            "POSITION": 16,
            "TEXCOORD_0": 18
          },
          "indices": 19,
          "material": 0,
          "mode": 4
        }
      ]
    },
    {
      "name": "ArmyJacket_MidRez.001_GoB_ArmyJacket_low_0",
      "primitives": [
        {
          "attributes": {
            "NORMAL": 21,
            "POSITION": 20,
            "TEXCOORD_0": 22
          },
          "indices": 23,
          "material": 0,
          "mode": 4
        }
      ]
    },
    {
      "name": "ArmyJacket_MidRez.001_GoB_ArmyJacket_low_0",
      "primitives": [
        {
          "attributes": {
            "NORMAL": 25,
            "POSITION": 24,
            "TEXCOORD_0": 26
          },
          "indices": 27,
          "material": 0,
          "mode": 4
        }
      ]
    },
    {
      "name": "ArmyJacket_MidRez.001_GoB_ArmyJacket_low_0",
      "primitives": [
        {
          "attributes": {
            "NORMAL": 29,
            "POSITION": 28,
            "TEXCOORD_0": 30
          },
          "indices": 31,
          "material": 0,
          "mode": 4
        }
      ]
    }
  ],
  "nodes": [
    {
      "children": [
        1
      ],
      "matrix": [
        1.0,
        0.0,
        0.0,
        0.0,
        0.0,
        2.220446049250313e-16,
        -1.0,
        0.0,
        0.0,
        1.0,
        2.220446049250313e-16,
        0.0,
        0.0,
        0.0,
        0.0,
        1.0
      ],
      "name": "Sketchfab_model"
    },
    {
      "children": [
        2
      ],
      "name": "320c4399e2dd47d0a8b8a16b5cd50ba6.fbx"
    },
    {
      "children": [
        3
      ],
      "name": "RootNode"
    },
    {
      "children": [
        4,
        5,
        6,
        7,
        8,
        9,
        10,
        11
      ],
      "name": "ArmyJacket_MidRez.001"
    },
    {
      "mesh": 0,
      "name": "ArmyJacket_MidRez.001_GoB_ArmyJacket_low_0"
    },
    {
      "mesh": 1,
      "name": "ArmyJacket_MidRez.001_GoB_ArmyJacket_low_0"
    },
    {
      "mesh": 2,
      "name": "ArmyJacket_MidRez.001_GoB_ArmyJacket_low_0"
    },
    {
      "mesh": 3,
      "name": "ArmyJacket_MidRez.001_GoB_ArmyJacket_low_0"
    },
    {
      "mesh": 4,
      "name": "ArmyJacket_MidRez.001_GoB_ArmyJacket_low_0"
    },
    {
      "mesh": 5,
      "name": "ArmyJacket_MidRez.001_GoB_ArmyJacket_low_0"
    },
    {
      "mesh": 6,
      "name": "ArmyJacket_MidRez.001_GoB_ArmyJacket_low_0"
    },
    {
      "mesh": 7,
      "name": "ArmyJacket_MidRez.001_GoB_ArmyJacket_low_0"
    }
  ],
  "samplers": [
    {
      "magFilter": 9729,
      "minFilter": 9987,
      "wrapS": 10497,
      "wrapT": 10497
    }
  ],
  "scene": 0,
  "scenes": [
    {
      "name": "Sketchfab_Scene",
      "nodes": [
        0
      ]
    }
  ],
  "textures": [
    {
      "sampler": 0,
      "source": 0
    },
    {
      "sampler": 0,
      "source": 1
    }
  ]
}
